<?xml version="1.0" encoding="UTF-8"?>
<svg xmlns="http://www.w3.org/2000/svg" xmlns:xlink="http://www.w3.org/1999/xlink" width="48px" height="17px" viewBox="0 0 47 17" version="1.1">
<g id="surface1">
<path style=" stroke:none;fill-rule:nonzero;fill:rgb(100%,100%,100%);fill-opacity:1;" d="M 47.027344 4.832031 C 47.027344 5.242188 47.027344 5.648438 47.019531 6.0625 C 46.988281 6.105469 46.957031 6.140625 46.945312 6.183594 C 46.835938 6.476562 46.753906 6.78125 46.617188 7.054688 C 46.324219 7.632812 45.933594 8.152344 45.484375 8.617188 C 45.152344 8.957031 44.808594 9.292969 44.4375 9.585938 C 43.988281 9.941406 43.515625 10.273438 43.03125 10.574219 C 42.269531 11.046875 41.5 11.503906 40.710938 11.925781 C 40.035156 12.285156 39.335938 12.609375 38.628906 12.90625 C 37.792969 13.257812 36.9375 13.574219 36.085938 13.882812 C 35.386719 14.132812 34.675781 14.351562 33.96875 14.582031 C 33.582031 14.710938 33.195312 14.835938 32.808594 14.960938 C 32.824219 14.914062 32.847656 14.886719 32.878906 14.878906 C 33.167969 14.769531 33.460938 14.664062 33.75 14.554688 C 34.648438 14.210938 35.550781 13.859375 36.398438 13.398438 C 36.929688 13.109375 37.460938 12.824219 37.964844 12.5 C 38.316406 12.273438 38.625 11.984375 38.949219 11.71875 C 39.386719 11.359375 39.738281 10.925781 39.964844 10.398438 C 40.101562 10.085938 40.15625 9.757812 40.09375 9.421875 C 40.027344 9.050781 39.820312 8.746094 39.570312 8.476562 C 39.289062 8.164062 38.945312 7.929688 38.578125 7.746094 C 38.207031 7.5625 37.824219 7.398438 37.433594 7.253906 C 37.105469 7.132812 36.765625 7.039062 36.425781 6.960938 C 36.035156 6.875 35.636719 6.820312 35.242188 6.753906 C 34.90625 6.695312 34.574219 6.628906 34.238281 6.582031 C 33.839844 6.523438 33.4375 6.476562 33.039062 6.433594 C 32.578125 6.390625 32.117188 6.351562 31.65625 6.316406 C 31.273438 6.292969 30.890625 6.269531 30.507812 6.261719 C 29.980469 6.25 29.453125 6.25 28.925781 6.261719 C 28.152344 6.273438 27.375 6.292969 26.597656 6.320312 C 26.320312 6.328125 26.042969 6.355469 25.765625 6.375 C 25.363281 6.402344 24.964844 6.433594 24.5625 6.460938 C 24.4375 6.472656 24.308594 6.476562 24.183594 6.492188 C 23.875 6.527344 23.570312 6.570312 23.261719 6.605469 C 22.992188 6.640625 22.722656 6.660156 22.449219 6.699219 C 22.066406 6.75 21.683594 6.8125 21.300781 6.871094 C 20.964844 6.917969 20.625 6.960938 20.289062 7.019531 C 19.902344 7.082031 19.515625 7.160156 19.128906 7.230469 C 19.570312 7.527344 20.050781 7.726562 20.5625 7.859375 C 21.195312 8.027344 21.839844 8.085938 22.488281 8.148438 C 22.875 8.183594 23.261719 8.191406 23.652344 8.207031 C 23.90625 8.21875 24.164062 8.226562 24.421875 8.238281 C 24.960938 8.265625 25.5 8.292969 26.039062 8.328125 C 26.3125 8.34375 26.589844 8.371094 26.863281 8.414062 C 27.308594 8.484375 27.757812 8.550781 28.195312 8.648438 C 28.929688 8.8125 29.628906 9.074219 30.265625 9.488281 C 30.605469 9.710938 30.886719 9.988281 31.011719 10.378906 C 31.207031 10.992188 30.992188 11.523438 30.601562 11.988281 C 30.210938 12.453125 29.710938 12.789062 29.214844 13.121094 C 28.523438 13.582031 27.765625 13.90625 26.988281 14.175781 C 26.507812 14.339844 26.023438 14.5 25.539062 14.640625 C 25.113281 14.761719 24.679688 14.863281 24.246094 14.960938 C 23.835938 15.054688 23.421875 15.140625 23.007812 15.21875 C 22.703125 15.277344 22.398438 15.328125 22.09375 15.367188 C 21.722656 15.414062 21.347656 15.449219 20.976562 15.484375 C 20.515625 15.527344 20.054688 15.59375 19.59375 15.597656 C 18.59375 15.601562 17.59375 15.652344 16.597656 15.515625 C 16.257812 15.46875 15.914062 15.460938 15.578125 15.394531 C 14.90625 15.253906 14.230469 15.113281 13.589844 14.847656 C 13.0625 14.628906 12.574219 14.363281 12.199219 13.914062 C 11.984375 13.65625 11.941406 13.292969 12.136719 13.03125 C 12.226562 12.910156 12.351562 12.816406 12.472656 12.722656 C 12.664062 12.570312 12.863281 12.429688 13.074219 12.277344 C 13.015625 12.253906 12.984375 12.234375 12.949219 12.226562 C 12.554688 12.128906 12.160156 12.03125 11.761719 11.933594 C 11.042969 11.761719 10.324219 11.582031 9.605469 11.414062 C 9.453125 11.378906 9.265625 11.324219 9.140625 11.382812 C 8.65625 11.605469 8.171875 11.847656 7.714844 12.125 C 7.242188 12.40625 6.792969 12.722656 6.347656 13.042969 C 6.007812 13.289062 5.667969 13.542969 5.417969 13.890625 C 5.242188 14.128906 5.160156 14.390625 5.167969 14.695312 C 5.179688 15.007812 5.34375 15.230469 5.539062 15.429688 C 5.914062 15.808594 6.371094 16.054688 6.851562 16.265625 C 7.460938 16.535156 8.09375 16.742188 8.734375 16.914062 C 8.816406 16.9375 8.890625 16.992188 8.96875 17.027344 C 8.902344 17.027344 8.832031 17.027344 8.761719 17.019531 C 8.609375 16.976562 8.460938 16.941406 8.3125 16.914062 C 7.855469 16.832031 7.398438 16.78125 6.949219 16.671875 C 6.179688 16.484375 5.410156 16.277344 4.652344 16.042969 C 3.8125 15.785156 3.011719 15.421875 2.261719 14.960938 C 1.824219 14.691406 1.417969 14.382812 1.070312 14.011719 C 0.648438 13.5625 0.289062 13.066406 0.113281 12.457031 C 0.105469 12.433594 0.0585938 12.417969 0.0273438 12.402344 C 0.0273438 11.984375 0.0273438 11.566406 0.0390625 11.140625 C 0.0742188 11.054688 0.101562 10.972656 0.128906 10.886719 C 0.382812 10.027344 0.867188 9.300781 1.457031 8.648438 C 1.726562 8.351562 2.027344 8.082031 2.328125 7.820312 C 2.648438 7.546875 2.980469 7.28125 3.328125 7.042969 C 3.84375 6.6875 4.371094 6.351562 4.90625 6.019531 C 5.75 5.5 6.632812 5.046875 7.539062 4.644531 C 8.417969 4.25 9.304688 3.871094 10.203125 3.515625 C 11.007812 3.195312 11.824219 2.90625 12.644531 2.625 C 13.25 2.417969 13.867188 2.246094 14.484375 2.066406 C 15.046875 1.90625 15.613281 1.746094 16.179688 1.601562 C 16.753906 1.457031 17.332031 1.328125 17.910156 1.195312 C 18.226562 1.121094 18.542969 1.054688 18.863281 0.992188 C 19.199219 0.921875 19.535156 0.859375 19.875 0.792969 C 20.152344 0.742188 20.433594 0.691406 20.710938 0.640625 C 20.980469 0.59375 21.25 0.542969 21.519531 0.496094 C 21.785156 0.453125 22.046875 0.417969 22.308594 0.378906 C 22.550781 0.34375 22.789062 0.308594 23.03125 0.273438 C 23.335938 0.230469 23.640625 0.1875 23.945312 0.144531 C 24.128906 0.121094 24.3125 0.105469 24.492188 0.0820312 C 24.503906 0.0820312 24.511719 0.046875 24.519531 0.0273438 C 24.609375 0.0273438 24.695312 0.0273438 24.792969 0.0429688 C 24.800781 0.0625 24.792969 0.0820312 24.785156 0.0820312 C 24.351562 0.152344 23.917969 0.222656 23.488281 0.292969 C 23.0625 0.359375 22.640625 0.417969 22.21875 0.496094 C 21.628906 0.605469 21.039062 0.722656 20.453125 0.84375 C 19.777344 0.988281 19.101562 1.128906 18.433594 1.296875 C 17.484375 1.535156 16.539062 1.789062 15.617188 2.121094 C 15.089844 2.316406 14.550781 2.484375 14.03125 2.695312 C 13.195312 3.03125 12.375 3.394531 11.585938 3.828125 C 11.222656 4.027344 10.859375 4.222656 10.503906 4.429688 C 10.109375 4.664062 9.742188 4.941406 9.398438 5.25 C 8.90625 5.691406 8.460938 6.164062 8.191406 6.785156 C 8.011719 7.203125 8.035156 7.625 8.210938 8.035156 C 8.347656 8.351562 8.570312 8.605469 8.839844 8.824219 C 9.3125 9.203125 9.832031 9.492188 10.398438 9.691406 C 11.191406 9.972656 11.996094 10.199219 12.824219 10.335938 C 13.476562 10.441406 14.128906 10.5625 14.78125 10.648438 C 15.195312 10.703125 15.609375 10.714844 16.027344 10.742188 C 16.414062 10.765625 16.800781 10.785156 17.191406 10.796875 C 17.675781 10.8125 18.164062 10.828125 18.648438 10.828125 C 19.097656 10.828125 19.546875 10.8125 19.992188 10.800781 C 20.203125 10.792969 20.410156 10.78125 20.617188 10.769531 C 21.070312 10.75 21.519531 10.730469 21.96875 10.710938 C 22.222656 10.703125 22.472656 10.695312 22.726562 10.683594 C 22.871094 10.675781 23.015625 10.667969 23.164062 10.652344 C 23.53125 10.617188 23.902344 10.574219 24.269531 10.539062 C 24.503906 10.515625 24.742188 10.503906 24.972656 10.476562 C 25.316406 10.433594 25.660156 10.378906 26 10.335938 C 26.398438 10.28125 26.792969 10.246094 27.1875 10.183594 C 27.683594 10.109375 28.175781 10.015625 28.671875 9.925781 C 28.785156 9.90625 28.894531 9.875 29.039062 9.84375 C 28.824219 9.753906 28.648438 9.679688 28.46875 9.605469 C 27.882812 9.371094 27.261719 9.304688 26.644531 9.230469 C 26.273438 9.1875 25.902344 9.167969 25.53125 9.140625 C 25.175781 9.117188 24.820312 9.097656 24.46875 9.082031 C 24.109375 9.070312 23.753906 9.0625 23.394531 9.054688 C 23.042969 9.042969 22.691406 9.039062 22.339844 9.023438 C 21.964844 9 21.585938 8.976562 21.210938 8.933594 C 20.851562 8.890625 20.492188 8.835938 20.136719 8.753906 C 19.507812 8.601562 18.90625 8.359375 18.324219 8.082031 C 18.019531 7.941406 17.78125 7.707031 17.582031 7.445312 C 17.40625 7.214844 17.257812 6.953125 17.246094 6.640625 C 17.222656 6.050781 17.476562 5.566406 17.847656 5.152344 C 18.136719 4.835938 18.46875 4.546875 18.816406 4.292969 C 19.371094 3.882812 19.964844 3.527344 20.589844 3.234375 C 21.085938 3 21.589844 2.773438 22.105469 2.585938 C 22.804688 2.332031 23.515625 2.089844 24.238281 1.902344 C 24.921875 1.722656 25.625 1.605469 26.328125 1.488281 C 26.875 1.398438 27.433594 1.339844 27.984375 1.285156 C 28.324219 1.25 28.667969 1.230469 29.007812 1.226562 C 29.382812 1.222656 29.757812 1.234375 30.136719 1.253906 C 30.667969 1.285156 31.199219 1.324219 31.730469 1.371094 C 31.984375 1.390625 32.234375 1.414062 32.484375 1.460938 C 32.933594 1.546875 33.386719 1.636719 33.828125 1.75 C 34.226562 1.851562 34.625 1.964844 35.007812 2.113281 C 35.492188 2.296875 35.871094 2.628906 36.152344 3.066406 C 36.375 3.414062 36.351562 3.761719 36.136719 4.082031 C 35.945312 4.367188 35.65625 4.550781 35.359375 4.714844 C 35.148438 4.835938 34.941406 4.957031 34.707031 5.089844 C 34.789062 5.105469 34.835938 5.117188 34.886719 5.125 C 35.042969 5.148438 35.199219 5.171875 35.355469 5.195312 C 35.632812 5.238281 35.910156 5.285156 36.1875 5.328125 C 36.421875 5.363281 36.65625 5.398438 36.890625 5.433594 C 37.152344 5.476562 37.417969 5.519531 37.679688 5.558594 C 37.972656 5.605469 38.265625 5.65625 38.5625 5.695312 C 38.699219 5.714844 38.851562 5.75 38.980469 5.714844 C 39.699219 5.5 40.417969 5.277344 41.128906 5.03125 C 41.8125 4.792969 42.449219 4.460938 42.882812 3.835938 C 43.042969 3.597656 43.175781 3.34375 43.203125 3.054688 C 43.253906 2.53125 43.019531 2.105469 42.6875 1.738281 C 42.246094 1.257812 41.683594 0.957031 41.054688 0.699219 C 41.125 0.699219 41.164062 0.691406 41.199219 0.699219 C 41.488281 0.78125 41.777344 0.863281 42.0625 0.953125 C 42.976562 1.238281 43.855469 1.609375 44.683594 2.097656 C 45.277344 2.449219 45.8125 2.859375 46.261719 3.394531 C 46.605469 3.804688 46.851562 4.261719 46.972656 4.789062 C 46.976562 4.808594 47.007812 4.816406 47.027344 4.832031 Z M 47.027344 4.832031 "/>
</g>
</svg>
